<?xml version="1.0" encoding="utf-8"?>
<!-- Generator: Adobe Illustrator 27.5.0, SVG Export Plug-In . SVG Version: 6.00 Build 0)  -->
<svg version="1.1" id="Layer_1" xmlns="http://www.w3.org/2000/svg" xmlns:xlink="http://www.w3.org/1999/xlink" x="0px" y="0px"
	 viewBox="0 0 675.9 301" style="enable-background:new 0 0 675.9 301;" xml:space="preserve">
<style type="text/css">
	.st0{fill:#55A546;}
	.st1{fill:#00877C;}
	.st2{fill:#009AC7;}
	.st3{fill:#005B82;}
	.st4{fill:#FFFFFF;}
	.st5{font-family:'Verdana';}
	.st6{font-size:20px;}
	.st7{enable-background:new    ;}
	.st8{fill:none;stroke:#000000;stroke-width:4;stroke-miterlimit:10;}
	.st9{fill:none;stroke:#000000;stroke-width:4;stroke-miterlimit:10;stroke-dasharray:5.9694,5.9694;}
	.st10{fill:none;stroke:#000000;stroke-width:4;stroke-miterlimit:10;stroke-dasharray:6.0672,6.0672;}
	.st11{fill:none;stroke:#000000;stroke-width:4;stroke-miterlimit:10;stroke-dasharray:6.0526,6.0526;}
	.st12{fill:none;stroke:#000000;stroke-width:4;stroke-miterlimit:10;stroke-dasharray:6.0408,6.0408;}
</style>
<circle class="st0" cx="147.5" cy="147.5" r="147.5"/>
<circle class="st1" cx="147.5" cy="176" r="125"/>
<circle class="st2" cx="147.5" cy="211" r="90"/>
<g>
	<circle class="st3" cx="147.5" cy="243.4" r="57.6"/>
	<text transform="matrix(1 0 0 1 125.0535 248.972)" class="st4 st5 st6">Files</text>
</g>
<text transform="matrix(1 0 0 1 105.441 172.0701)" class="st5 st6">Datasets</text>
<text transform="matrix(1 0 0 1 84.056 109.5359)" class="st5 st6">Experiments</text>
<text transform="matrix(1 0 0 1 101.8212 39.4036)" class="st5 st6">Projects</text>
<text transform="matrix(1 0 0 1 408.7283 248.972)" class="st5 st6">Files</text>
<text transform="matrix(1 0 0 1 408.7281 172.0701)" class="st7"><tspan x="0" y="0" class="st5 st6">per instrument,  </tspan><tspan x="0" y="24" class="st5 st6">include run-conditions</tspan></text>
<text transform="matrix(1 0 0 1 408.7289 109.5359)" class="st5 st6">study sample properties</text>
<text transform="matrix(1 0 0 1 408.7284 39.4036)" class="st7"><tspan x="0" y="0" class="st5 st6">research project/ </tspan><tspan x="0" y="24" class="st5 st6">unit of research activity</tspan></text>
<g>
	<g>
		<line class="st8" x1="219.3" y1="104.9" x2="222.3" y2="104.9"/>
		<line class="st9" x1="228.3" y1="104.9" x2="368.5" y2="104.9"/>
		<line class="st8" x1="371.5" y1="104.9" x2="374.5" y2="104.9"/>
		<g>
			<polygon points="372.2,112.7 385.7,104.9 372.2,97.1 			"/>
		</g>
	</g>
</g>
<g>
	<g>
		<line class="st8" x1="192.6" y1="33.6" x2="195.6" y2="33.6"/>
		<line class="st10" x1="201.6" y1="33.6" x2="368.5" y2="33.6"/>
		<line class="st8" x1="371.5" y1="33.6" x2="374.5" y2="33.6"/>
		<g>
			<polygon points="372.2,41.3 385.7,33.6 372.2,25.8 			"/>
		</g>
	</g>
</g>
<g>
	<g>
		<line class="st8" x1="205.1" y1="165.9" x2="208.1" y2="165.9"/>
		<line class="st11" x1="214.2" y1="165.9" x2="368.5" y2="165.9"/>
		<line class="st8" x1="371.5" y1="165.9" x2="374.5" y2="165.9"/>
		<g>
			<polygon points="372.2,173.7 385.7,165.9 372.2,158.1 			"/>
		</g>
	</g>
</g>
<g>
	<g>
		<line class="st8" x1="181.3" y1="243.4" x2="184.3" y2="243.4"/>
		<line class="st12" x1="190.3" y1="243.4" x2="368.5" y2="243.4"/>
		<line class="st8" x1="371.5" y1="243.4" x2="374.5" y2="243.4"/>
		<g>
			<polygon points="372.2,251.2 385.7,243.4 372.2,235.6 			"/>
		</g>
	</g>
</g>
</svg>
